<svg xmlns:svg="http://www.w3.org/2000/svg" xmlns="http://www.w3.org/2000/svg" version="1.0" width="35" height="31" style="">
    <rect id="backgroundrect" width="100%" height="100%" x="0" y="0" fill="none" stroke="none" class="" style="" />

    <g class="currentLayer" style="">
        <title>Layer 1</title>
        <path d="M0,2.1172223801135325e-16 L0,30.989146246954284 L35.488531903963995,30.989146246954284 L35.488531903963995,2.1172223801135325e-16 L0,2.1172223801135325e-16 zM1.1918902402674725,1.1918902402674725 L8.1346508898255,1.1918902402674725 L1.1918902402674725,13.252329608973959 L1.1918902402674725,1.1918902402674725 zM27.346431700136822,1.1918902402674725 L34.29664166369652,1.1918902402674725 L34.29664166369652,13.267228236977303 L27.346431700136822,1.1918902402674725 zM9.520223294136436,1.199339554269144 L25.968308609827556,1.199339554269144 L34.20724989567646,15.502022437478814 L25.968308609827556,29.78980669268514 L9.520223294136436,29.78980669268514 L1.2812820082875334,15.502022437478814 L9.520223294136436,1.199339554269144 zM17.744265951981998,13.110792642942197 C16.428419126726713,13.110792642942197 15.360485471447051,14.178726298221845 15.360485471447051,15.494573123477142 C15.360485471447051,16.81041994873244 16.428419126726713,17.878355987792563 17.744265951981998,17.878353604012087 C19.060112777237286,17.878353604012087 20.128046432516943,16.810422332512918 20.128046432516943,15.494573123477142 C20.128046432516943,14.178726298221845 19.060112777237286,13.110792642942197 17.744265951981998,13.110792642942197 zM34.29664166369652,17.72191800997698 L34.29664166369652,29.797256006686812 L27.353881014138494,29.797256006686812 L34.29664166369652,17.72191800997698 zM1.1918902402674725,17.736816637980326 L8.127201575823827,29.797256006686812 L1.1918902402674725,29.797256006686812 L1.1918902402674725,17.736816637980326 z" id="path3203" style="fill:#847A71;fill-opacity:1;stroke:none;stroke-width:5;stroke-linecap:butt;stroke-linejoin:miter;stroke-miterlimit:4;stroke-dasharray:none;stroke-opacity:1" class="" />
    </g>
</svg>