<svg xmlns:svg="http://www.w3.org/2000/svg" xmlns="http://www.w3.org/2000/svg" version="1.0" width="33" height="28" style="">
    <rect id="backgroundrect" width="100%" height="100%" x="0" y="0" fill="none" stroke="none" class="" style="" />


    <g class="currentLayer" style="">
        <title>Layer 1</title>
        <path d="M5.987305261194961,1.0635249496663505e-12 L2.5568805902295537e-13,10.370690144599548 L4.433196075260894,12.93098540604221 L10.395595740527169,23.261826597155192 L10.395595740527169,28.392379358411887 L22.370206262916582,28.392379358411887 L22.370206262916582,23.29171331226931 L22.380168501287955,23.29171331226931 L28.35751152411129,12.926004286856523 L32.77576424181487,10.375671263785234 L26.788458980620163,0.004981119186749638 L22.370206262916582,2.5553141422580388 L10.40555797889854,2.5503330230723527 L5.987305261194961,1.0635249496663505e-12 zM10.863820943981663,3.3473120927821305 L21.91194329783346,3.3522932119678166 L27.440985593945044,12.926004286856523 L21.916924417019146,22.49473424255953 L10.873783182353035,22.489753123373845 L5.344740886241452,12.916042048485151 L10.863820943981663,3.3473120927821305 zM16.39286324009325,11.327065028251281 C15.512998347133655,11.327065028251281 14.798905100673691,12.041156680753101 14.798905100673691,12.921023167670837 C14.798905100673691,13.80088806063043 15.512998347133655,14.514979713132249 16.39286324009325,14.514981307090393 C17.272728133052844,14.514981307090393 17.986821379512804,13.800886466672294 17.986821379512804,12.921023167670837 C17.986821379512804,12.041158274711245 17.272728133052844,11.327063434293137 16.39286324009325,11.327065028251281 z" id="rect3255" style="fill:#847A71;fill-opacity:1;stroke:none;stroke-width:5;stroke-linecap:butt;stroke-linejoin:miter;stroke-miterlimit:4;stroke-opacity:1" class="" />
    </g>
</svg>